<svg id="Layer_1" enable-background="new 0 0 512 512" height="512" viewBox="0 0 512 512" width="512" xmlns="http://www.w3.org/2000/svg"><g><g fill="#ff9c39"><path d="m408.258 1.808c-6.457-3.075-13.917-2.183-19.491 2.348l-67.584 55.391c-1.668 1.367-2.668 3.388-2.743 5.545s.783 4.242 2.353 5.722l85.291 80.388c1.419 1.338 3.268 2.042 5.144 2.042 1.003 0 2.015-.201 2.972-.615 2.748-1.187 4.527-3.895 4.527-6.889v-127.347c0-7.155-4.011-13.51-10.469-16.585z"/><path d="m218.951 59.547-67.609-55.409c-5.55-4.512-13.01-5.404-19.467-2.329s-10.468 9.43-10.468 16.584v127.347c0 2.994 1.779 5.702 4.527 6.889.958.413 1.968.615 2.972.615 1.876 0 3.725-.704 5.144-2.042l85.291-80.389c1.57-1.48 2.428-3.564 2.353-5.722-.075-2.156-1.074-4.177-2.743-5.544z"/></g><path d="m37.646 451.997v-62.525c0-19.19 15.605-34.802 34.786-34.802s34.786 15.612 34.786 34.802-15.605 34.803-34.786 34.803c-3.768 0-6.833-3.066-6.833-6.835s3.065-6.836 6.833-6.836c4.142 0 7.5-3.36 7.5-7.504s-3.358-7.504-7.5-7.504c-12.039 0-21.833 9.799-21.833 21.843s9.794 21.843 21.833 21.843c27.452 0 49.786-22.345 49.786-49.81s-22.334-49.809-49.786-49.809-49.786 22.344-49.786 49.809v62.525c0 33.086 26.904 60.003 59.974 60.003h29.974l-3.927-15.007h-26.047c-24.799 0-44.974-20.185-44.974-44.996z" fill="#ff9c39"/><path d="m431.47 499.08v9c0 2.16-1.76 3.92-3.92 3.92h-314.96c-2.16 0-3.92-1.76-3.92-3.92v-9.01c0-17.45 14.15-31.61 31.6-31.61h16.01l-10.79-57.95c-4.53-24.3 5.9-48.05 24.96-61.53 6.25-4.42 13.43-7.73 21.31-9.6l9.03-2.15 2.49-.59h133.57l2.51.6 9.01 2.14c7.89 1.87 15.07 5.18 21.32 9.6 19.05 13.49 29.48 37.24 24.95 61.53l-10.79 57.95h16.01c17.46 0 31.61 14.16 31.61 31.62z" fill="#ffb636"/><path d="m431.47 499.084v8.994c0 2.161-1.76 3.922-3.92 3.922h-22c2.16 0 3.92-1.761 3.92-3.922v-8.994c0-17.469-14.15-31.626-31.61-31.626h-16.01l10.79-57.948c4.53-24.292-5.9-48.043-24.95-61.53-6.25-4.422-13.43-7.734-21.32-9.605l-11.52-2.731h22l11.52 2.731c7.89 1.871 15.07 5.183 21.32 9.605 19.05 13.487 29.48 37.238 24.95 61.53l-10.79 57.948h16.01c17.46 0 31.61 14.157 31.61 31.626z" fill="#ff9c39"/><path d="m369.69 347.98c-28.75 17.709-62.95 27.994-99.62 27.994s-70.87-10.285-99.62-27.994c6.25-4.422 13.43-7.734 21.31-9.605l11.52-2.731h133.57l11.52 2.731c7.89 1.871 15.07 5.183 21.32 9.605z" fill="#ff9c39"/><path d="m339.36 336.24v173.17c0 1.38-1.12 2.5-2.5 2.5h-22.26c-13.66 0-24.77-11.11-24.77-24.76v-76.12c0-10.89-8.86-19.75-19.76-19.75s-19.76 8.86-19.76 19.75v76.12c0 13.65-11.11 24.76-24.76 24.76h-22.26c-1.39 0-2.5-1.12-2.5-2.5v-173.18l2.49-.59h133.57l2.5.6z" fill="#ffd85c"/><path d="m339.35 336.24v26.83c-21.4 8.32-44.79 12.9-69.28 12.9s-47.87-4.59-69.28-12.91v-26.83l2.49-.59h133.57z" fill="#ffb636"/><path d="m429.59 199.507c0 57.628-34.08 107.843-84.1 133.435-22.47 11.496-48.16 18.019-75.42 18.019-87.96 0-159.52-67.943-159.52-151.454 0-70.824 51.46-130.434 120.75-146.922 4.92-1.17 9.92-2.121 15-2.841 5.34-.76 10.77-1.271 16.27-1.511 2.49-.11 4.99-.17 7.5-.17s5.01.06 7.5.17c5.09.22 10.11.67 15.07 1.341 5.08.69 10.08 1.601 15 2.731 13.36 3.072 26.06 7.754 37.88 13.807 50.01 25.583 84.07 75.787 84.07 133.395z" fill="#ffd85c"/><path d="m429.59 199.507c0 57.628-34.08 107.843-84.1 133.435 41.46-31.205 58.1-79.419 58.1-133.435 0-53.996-16.63-102.2-58.07-133.395 50.01 25.583 84.07 75.787 84.07 133.395z" fill="#ffb636"/><path d="m242.532 262.402v10.333c0 15.19 12.352 27.548 27.535 27.548s27.535-12.358 27.535-27.548v-10.333l-27.535-10.005z" fill="#ff6248"/><path d="m300.735 187.395c-.4-1.689-1.648-3.049-3.295-3.594-17.651-5.839-37.093-5.84-54.745 0-1.647.545-2.895 1.905-3.295 3.594-.401 1.689.103 3.465 1.329 4.693l25.802 25.815c.938.938 2.209 1.465 3.536 1.465s2.598-.527 3.536-1.465l25.803-25.815c1.226-1.228 1.729-3.004 1.329-4.693z" fill="#4a555b"/><g fill="#ff9c39"><g><path d="m219.964 125.614c-15.183 0-27.535 12.358-27.535 27.548 0 4.144 3.358 7.504 7.5 7.504s7.5-3.36 7.5-7.504c0-6.915 5.623-12.541 12.535-12.541s12.535 5.626 12.535 12.541c0 4.144 3.358 7.504 7.5 7.504s7.5-3.36 7.5-7.504c-.001-15.19-12.353-27.548-27.535-27.548z"/><path d="m320.171 125.614c-15.183 0-27.535 12.358-27.535 27.548 0 4.144 3.358 7.504 7.5 7.504s7.5-3.36 7.5-7.504c0-6.915 5.623-12.541 12.535-12.541s12.535 5.626 12.535 12.541c0 4.144 3.358 7.504 7.5 7.504s7.5-3.36 7.5-7.504c0-15.19-12.352-27.548-27.535-27.548z"/></g><g><path d="m177.953 194.124c-2.891-.312-71.434-7.188-123.939 29.163-3.406 2.359-4.257 7.033-1.9 10.44 1.456 2.106 3.795 3.234 6.174 3.234 1.472 0 2.959-.432 4.261-1.334 47.768-33.071 112.973-26.668 113.807-26.582 4.117.434 7.813-2.541 8.254-6.66.442-4.12-2.538-7.819-6.657-8.261z"/><path d="m164.693 230.993c-2.02.345-49.781 8.851-78.431 43.626-2.635 3.198-2.18 7.927 1.017 10.563 1.397 1.152 3.087 1.714 4.766 1.713 2.163 0 4.309-.931 5.792-2.731 25.039-30.392 68.95-38.304 69.391-38.38 4.079-.702 6.818-4.576 6.122-8.659-.698-4.084-4.575-6.829-8.657-6.132z"/><path d="m486.121 223.287c-52.505-36.351-121.048-29.475-123.939-29.163-4.119.442-7.099 4.141-6.657 8.261.442 4.121 4.15 7.104 8.257 6.66.652-.07 65.837-6.627 113.804 26.583 1.302.901 2.789 1.334 4.261 1.334 2.378 0 4.718-1.129 6.174-3.234 2.357-3.408 1.506-8.082-1.9-10.441z"/><path d="m375.441 230.993c-4.084-.699-7.948 2.044-8.65 6.125s2.038 7.96 6.116 8.667c.44.076 44.352 7.988 69.391 38.38 1.483 1.8 3.628 2.731 5.792 2.731 1.679 0 3.369-.561 4.766-1.713 3.196-2.636 3.651-7.365 1.017-10.563-28.651-34.776-76.412-43.282-78.432-43.627z"/></g><g><path d="m277.57 48.234v48.654c0 4.142-3.36 7.504-7.5 7.504s-7.5-3.362-7.5-7.504v-48.654c2.49-.11 4.99-.17 7.5-.17s5.01.06 7.5.17z"/><path d="m246.3 49.744v34.027c0 4.152-3.36 7.504-7.5 7.504s-7.5-3.352-7.5-7.504v-31.185c4.92-1.171 9.92-2.121 15-2.842z"/><path d="m307.64 52.306v31.465c0 4.152-3.36 7.504-7.5 7.504-4.15 0-7.5-3.352-7.5-7.504v-34.197c5.08.691 10.08 1.601 15 2.732z"/></g><path d="m310.136 234.889c-4.142 0-7.5 3.36-7.5 7.504 0 6.915-5.623 12.541-12.535 12.541s-12.535-5.626-12.535-12.541c0-4.144-3.358-7.504-7.5-7.504s-7.5 3.36-7.5 7.504c0 6.915-5.623 12.541-12.535 12.541s-12.535-5.626-12.535-12.541c0-4.144-3.358-7.504-7.5-7.504s-7.5 3.36-7.5 7.504c0 15.19 12.352 27.548 27.535 27.548 7.887 0 15.01-3.335 20.035-8.67 5.025 5.335 12.148 8.67 20.035 8.67 15.183 0 27.535-12.358 27.535-27.548 0-4.145-3.358-7.504-7.5-7.504z"/></g></g></svg>