<svg id="Layer_1" height="512" viewBox="0 0 512 512" width="512" xmlns="http://www.w3.org/2000/svg" data-name="Layer 1"><path d="m256 11.677c-115.759 0-209.935 90.152-209.935 200.964 0 35.569 10.986 72.854 32.654 110.819 17.175 30.1 41.079 60.706 71.049 90.983 50.865 51.388 102.485 84.606 103 84.935a6 6 0 0 0 6.464 0c.515-.329 52.135-33.547 103-84.935 29.97-30.277 53.874-60.888 71.049-90.983 21.668-37.965 32.654-75.25 32.654-110.819 0-110.812-94.176-200.964-209.935-200.964zm166.921 305.723c-16.629 29.162-39.861 58.915-69.053 88.429a677.91 677.91 0 0 1 -97.868 81.303 677.91 677.91 0 0 1 -97.868-81.3c-29.192-29.512-52.424-59.265-69.053-88.432-20.579-36.088-31.014-71.336-31.014-104.759 0-104.195 88.793-188.964 197.935-188.964s197.935 84.769 197.935 188.964c0 33.423-10.435 68.671-31.014 104.759z"/><path d="m256 63.121c-85.408 0-154.893 69.485-154.893 154.893s69.485 154.893 154.893 154.893 154.893-69.485 154.893-154.893-69.485-154.893-154.893-154.893zm0 297.786c-78.792 0-142.893-64.1-142.893-142.893s64.101-142.893 142.893-142.893 142.893 64.1 142.893 142.893-64.101 142.893-142.893 142.893z"/><path d="m256 171.213c-35.942 0-65.184 33.1-65.184 73.793s29.242 73.794 65.184 73.794 65.184-33.1 65.184-73.792-29.242-73.795-65.184-73.795zm0 135.587c-29.326 0-53.184-27.72-53.184-61.792s23.858-61.795 53.184-61.795 53.184 27.721 53.184 61.793-23.858 61.794-53.184 61.794z"/><path d="m283.437 172.117c13.747 0 24.931-13.214 24.931-29.457s-11.184-29.46-24.931-29.46-24.931 13.215-24.931 29.458 11.184 29.459 24.931 29.459zm0-46.915c7.009 0 12.931 8 12.931 17.458s-5.922 17.457-12.931 17.457-12.931-7.994-12.931-17.457 5.922-17.46 12.931-17.46z"/><path d="m327.741 149.693c-12.406 0-22.5 11.864-22.5 26.446s10.093 26.445 22.5 26.445 22.5-11.863 22.5-26.445-10.093-26.446-22.5-26.446zm0 40.891c-5.691 0-10.5-6.615-10.5-14.445s4.808-14.446 10.5-14.446 10.5 6.616 10.5 14.446-4.808 14.445-10.5 14.445z"/><path d="m228.563 172.117c13.747 0 24.931-13.214 24.931-29.457s-11.184-29.46-24.931-29.46-24.931 13.215-24.931 29.458 11.184 29.459 24.931 29.459zm0-46.915c7.009 0 12.931 8 12.931 17.458s-5.922 17.457-12.931 17.457-12.931-7.994-12.931-17.457 5.922-17.46 12.931-17.46z"/><path d="m206.758 176.139c0-14.582-10.093-26.446-22.5-26.446s-22.5 11.864-22.5 26.446 10.093 26.445 22.5 26.445 22.5-11.863 22.5-26.445zm-22.5 14.445c-5.692 0-10.5-6.615-10.5-14.445s4.808-14.446 10.5-14.446 10.5 6.616 10.5 14.446-4.808 14.445-10.499 14.445z"/></svg>